/* XPM */
static char *x2etf_6kvus[] = {
/* columns rows colors chars-per-pixel */
"16 16 105 2 ",
"   c None",
".  c #71642C",
"X  c #796B32",
"o  c #7D6F33",
"O  c #766C46",
"+  c #817138",
"@  c #837339",
"#  c #86763A",
"$  c #82733C",
"%  c #81723E",
"&  c #81743F",
"*  c #88783B",
"=  c #89783B",
"-  c #8F7D3A",
";  c #88783C",
":  c #8C7B3C",
">  c #907F3B",
",  c #907F3F",
"<  c #807342",
"1  c #867840",
"2  c #897A42",
"3  c #8A7A43",
"4  c #8B7E50",
"5  c #90803C",
"6  c #8D814F",
"7  c #978541",
"8  c #978646",
"9  c #9C8B45",
"0  c #968548",
"q  c #94854B",
"w  c #988748",
"e  c #98894B",
"r  c #9C8A49",
"t  c #9C8D4F",
"y  c #958751",
"u  c #968B5E",
"i  c #A28F42",
"p  c #A59245",
"a  c #A79245",
"s  c #A3924D",
"d  c #A3914F",
"f  c #A4924D",
"g  c #A99448",
"h  c #AC984F",
"j  c #B29D4B",
"k  c #B39E4C",
"l  c #A08F50",
"z  c #A69652",
"x  c #A29154",
"c  c #A59557",
"v  c #AA9952",
"b  c #A1965E",
"n  c #AA9859",
"m  c #AB9A58",
"M  c #A8985F",
"N  c #AD9C5D",
"B  c #B29F57",
"V  c #B6A14D",
"C  c #B3A15A",
"Z  c #BCA959",
"A  c #998F68",
"S  c #9C9779",
"D  c #A29662",
"F  c #A49864",
"G  c #AA9C63",
"H  c #A79D68",
"J  c #A79F78",
"K  c #A59F7C",
"L  c #AAA069",
"P  c #BBA960",
"I  c #BCAA65",
"U  c #B7A668",
"Y  c #B3A46D",
"T  c #BAAA6F",
"R  c #ACA272",
"E  c #B2A573",
"W  c #B4A774",
"Q  c #B3A977",
"!  c #BCAE79",
"~  c #BBB17F",
"^  c #C4B36C",
"/  c #CBB769",
"(  c #C2B273",
")  c #C5B572",
"_  c #C3B576",
"`  c #CBBA76",
"'  c #C5B478",
"]  c #C5B578",
"[  c #C7B679",
"{  c #C6B97B",
"}  c #D8C77F",
"|  c #A9A483",
" . c #C6BB80",
".. c #C7B984",
"X. c #CABC84",
"o. c #DAC986",
"O. c #DBCB8A",
"+. c #DFCE8E",
"@. c #D6C896",
"#. c #D5CA9B",
"$. c #E1D191",
"%. c #DBD3A7",
"&. c #EFE4AC",
"*. c #EDE4B3",
"=. c #F5ECBB",
/* pixels */
"                                ",
"                                ",
"          , 7 g g a B (         ",
"      e ; X > p p i Z o.r       ",
"    6 f o + % 1 2 $ n ) c Y     ",
"    X.P : 4           M ` [     ",
"    @./ x             T C l     ",
"    #.&.J   | Q _ { F b D       ",
"    %.=.K   S ~ L H  .*.R       ",
"    U O.E           A N s W     ",
"    3 9 m O           ! $.'     ",
"    u I z ] ..8 0 w q t v d     ",
"      G +.} ^ k j V 5 . : <     ",
"        y h - # * * = @ &       ",
"                                ",
"                                "
};
