/* XPM */
static char *wzvpo_ezjwi[] = {
/* columns rows colors chars-per-pixel */
"32 32 179 2 ",
"   c None",
".  c #524A25",
"X  c #59522C",
"o  c #524F34",
"O  c #575336",
"+  c #575338",
"@  c #585438",
"#  c #5E593B",
"$  c #625D3D",
"%  c #6E622D",
"&  c #73652F",
"*  c #77682F",
"=  c #6A6139",
"-  c #6D6437",
";  c #766730",
":  c #766934",
">  c #7A6D34",
",  c #776B3B",
"<  c #7E7035",
"1  c #595743",
"2  c #5D5B46",
"3  c #615E4A",
"4  c #6D684E",
"5  c #656248",
"6  c #746B44",
"7  c #786E42",
"8  c #726A48",
"9  c #7B7144",
"0  c #77704E",
"q  c #7B7249",
"w  c #6E6B52",
"e  c #706D55",
"r  c #7F7B5F",
"t  c #7B7556",
"y  c #7F7C63",
"u  c #847435",
"i  c #8A7937",
"p  c #85753A",
"a  c #8D7C3B",
"s  c #917E3C",
"d  c #8C7D44",
"f  c #8A7C49",
"g  c #917F40",
"h  c #847C55",
"j  c #867E5A",
"k  c #958033",
"l  c #9B8537",
"z  c #94823D",
"x  c #948443",
"c  c #9C8B45",
"v  c #938348",
"b  c #978848",
"n  c #9C8B4B",
"m  c #9F904F",
"M  c #8F875C",
"N  c #938554",
"B  c #968952",
"V  c #9B8D53",
"C  c #90855B",
"Z  c #9A8C5A",
"A  c #9E9054",
"S  c #A08B45",
"D  c #A28F48",
"F  c #A79145",
"G  c #A99543",
"H  c #A5934D",
"J  c #AA944C",
"K  c #AE9B4B",
"L  c #B39F4D",
"P  c #A49453",
"I  c #AF9953",
"U  c #A3935D",
"Y  c #A79A5B",
"T  c #AE9E5D",
"R  c #BCA355",
"E  c #BBA55B",
"W  c #BDAA5F",
"Q  c #B2A158",
"!  c #8F8967",
"~  c #8A866B",
"^  c #908763",
"/  c #988F62",
"(  c #928A66",
")  c #9B9162",
"_  c #9D9668",
"`  c #9D9877",
"'  c #9C9574",
"]  c #A39661",
"[  c #AD9D61",
"{  c #A39E68",
"}  c #A99F6C",
"|  c #A79D70",
" . c #AB9F72",
".. c #A19B79",
"X. c #AFA06B",
"o. c #AAA264",
"O. c #B7A867",
"+. c #BDAB61",
"@. c #B7AA6F",
"#. c #BBAB6C",
"$. c #B2A163",
"%. c #ADA475",
"&. c #BCAB70",
"*. c #B3A779",
"=. c #B2AA7B",
"-. c #BCB27C",
";. c #C0A957",
":. c #C2AC5B",
">. c #CCB254",
",. c #C7B05C",
"<. c #CEB45A",
"1. c #D0B555",
"2. c #D1B75A",
"3. c #C1AD68",
"4. c #C2AD64",
"5. c #C4B16A",
"6. c #CEBC6F",
"7. c #CCB561",
"8. c #D8BF65",
"9. c #D3BF6E",
"0. c #D4BB63",
"q. c #C6B675",
"w. c #CBB770",
"e. c #C7B874",
"r. c #CCBA73",
"t. c #C1B37E",
"y. c #CABB7A",
"u. c #D1BC76",
"i. c #D2BE7A",
"p. c #DEC572",
"a. c #DAC778",
"s. c #DDC979",
"d. c #D4C07C",
"f. c #E4CD7C",
"g. c #B1A980",
"h. c #B4AD8B",
"j. c #BCB282",
"k. c #BBB38B",
"l. c #BFB891",
"z. c #BAB492",
"x. c #C3B784",
"c. c #C7B883",
"v. c #CABC87",
"b. c #C4BB8C",
"n. c #C4BB96",
"m. c #C6BF99",
"M. c #CCC182",
"N. c #D3C486",
"B. c #D1C58C",
"V. c #D2C98E",
"C. c #D6C991",
"Z. c #D9CC97",
"A. c #DBCF9B",
"S. c #DBD19B",
"D. c #E6CF80",
"F. c #E6D28F",
"G. c #E8D48D",
"H. c #E5D294",
"J. c #E9D692",
"K. c #E6D992",
"L. c #EDDC95",
"P. c #E3D59C",
"I. c #EBDA9C",
"U. c #F2DF9F",
"Y. c #EDE097",
"T. c #F2E09E",
"R. c #DDD5A5",
"E. c #E0D5A3",
"W. c #EDDDA1",
"Q. c #EFE0AB",
"!. c #F2E1A5",
"~. c #F3E5AB",
"^. c #EFE8BC",
"/. c #EAE3B4",
"(. c #F3EBBD",
"). c #F0EBC4",
"_. c #FFF8C7",
"`. c #FFFDCF",
"'. c #FBF3C5",
/* pixels */
"                                                                ",
"                                                                ",
"                                                                ",
"                                                                ",
"                    n a p p p p p p p p p b P o.                ",
"                o.P z s S L 1.>.<.1.>.>.1.f.J.y.n .             ",
"              Y b > * < z D K K K K K K L r.N.d.a.u $           ",
"            B z * : < < : > u u u u u p a I r.y.z s Z           ",
"          6 P F i < % & u s S S S S S c J 8.I.B.d V 4.q         ",
"          Z ;.c x & u b f 7 7 9 9 9 9 9 7 [ J.E x t.U.N         ",
"        / r.p.H ; z P 8                     V k a C.U.]         ",
"        k.F.M.x a P 4                       ^ i.q.5.f.]         ",
"        n.W.B.G :.h                         =.W.A.c <.Z         ",
"        v.I.q.>.5.5           w 2 3 3 1 y g.c 4.P u E t         ",
"        x.I.C.U.x.        ` %.Y $.o.[ [ Y f p v > P )           ",
"        n.'./._.n.        z.%.-.L.K.K.L.M.M _ V.-. .e           ",
"        m.'.^.`.n.        ..R.b.%.=.=.=.j.V.(.).R.!             ",
"        b.~.S.~.j.        ~ v.$.V A A V T G.(.x.V #.'           ",
"        t.J.B.Q.c.2         4 8 8 8 8 8 8 %.H.+.a z 3.r         ",
"        N ,.#.E.r.h                         ] l i @.L.M         ",
"        7 F p Q 7.X.                        ( i.y.A.!.]         ",
"        h x u b n E 7 5                     *.W.R.q.D.]         ",
"          [ W O.z a E #.h.C # O @ @ @ o h } c +.e.H 0.Z         ",
"          / u.W #.T a.I.H.w.J H J J J J H u ; a a i R 9         ",
"            B G.I.C.y.Z.H.s.>.>.>.>.>.>.G : > p % z D +         ",
"              B G.U.9.Q P A c c c c c c x p ; % s I =           ",
"                9 #.p.<.G i a a i a a a z a u s c -             ",
"                  . , b c s x s a z g s d a p , X               ",
"                                                                ",
"                                                                ",
"                                                                ",
"                                                                "
};
