/* XPM */
static char *if3dc_bh68u[] = {
/* columns rows colors chars-per-pixel */
"64 64 224 2 ",
"   c None",
".  c #443F24",
"X  c #4C4725",
"o  c #514C23",
"O  c #524E2F",
"+  c #5E5429",
"@  c #5C552B",
"#  c #524E33",
"$  c #545032",
"%  c #56533B",
"&  c #5B5739",
"*  c #5C583A",
"=  c #5C5734",
"-  c #6B5E2B",
";  c #655B2C",
":  c #625B33",
">  c #655E3A",
",  c #6D612D",
"<  c #71642E",
"1  c #78692E",
"2  c #6A6238",
"3  c #736632",
"4  c #766932",
"5  c #7C6D33",
"6  c #7B6E3C",
"7  c #736A3C",
"8  c #7F7135",
"9  c #7F703C",
"0  c #595741",
"q  c #5C5943",
"w  c #625E46",
"e  c #6E6845",
"r  c #65634C",
"t  c #6C684B",
"y  c #696447",
"u  c #736C45",
"i  c #716C4B",
"p  c #77704D",
"a  c #7D7547",
"s  c #6B6853",
"d  c #716E55",
"f  c #716E59",
"g  c #777459",
"h  c #7D7B67",
"j  c #837436",
"k  c #84753C",
"l  c #86793B",
"z  c #8A7A3B",
"x  c #897636",
"c  c #917E3B",
"v  c #847944",
"b  c #8D7D42",
"n  c #837A4B",
"m  c #857848",
"M  c #907E45",
"N  c #827B55",
"B  c #817E67",
"V  c #8F803F",
"C  c #94823D",
"Z  c #9B863D",
"A  c #9C893F",
"S  c #A28A3C",
"D  c #8C814E",
"F  c #8C8246",
"G  c #958344",
"H  c #9A8642",
"J  c #9B8A43",
"K  c #94844C",
"L  c #9B894B",
"P  c #9B8749",
"I  c #8B8154",
"U  c #8B845C",
"Y  c #948A54",
"T  c #9B8C53",
"R  c #958A5B",
"E  c #998A59",
"W  c #908655",
"Q  c #9D9158",
"!  c #9A934D",
"~  c #A28D43",
"^  c #A38E4C",
"/  c #A59144",
"(  c #AB9545",
")  c #A4934A",
"_  c #AD954A",
"`  c #AC9A4C",
"'  c #AE9946",
"]  c #B39C4C",
"[  c #B0974B",
"{  c #A39254",
"}  c #AC9A53",
"|  c #A1945B",
" . c #AC9A59",
".. c #AB9654",
"X. c #B29C56",
"o. c #B9A44D",
"O. c #B9A44D",
"+. c #ADA158",
"@. c #B6A354",
"#. c #BBA553",
"$. c #B3A25C",
"%. c #BBA55C",
"&. c #BCA95C",
"*. c #BDA853",
"=. c #888466",
"-. c #958C64",
";. c #948E6B",
":. c #9B9365",
">. c #9B936C",
",. c #898772",
"<. c #8B8973",
"1. c #97957B",
"2. c #928F73",
"3. c #A99D64",
"4. c #A49968",
"5. c #A69D72",
"6. c #B4A364",
"7. c #BCAB63",
"8. c #B3A36A",
"9. c #BBAC6C",
"0. c #B8A665",
"q. c #BCB369",
"w. c #ADA579",
"e. c #B6AB78",
"r. c #BAB27B",
"t. c #AFA165",
"y. c #C0A94F",
"u. c #C3AB52",
"i. c #C3AC5C",
"p. c #C9AF5F",
"a. c #CFB354",
"s. c #CAB25C",
"d. c #D1B455",
"f. c #D6BA5E",
"g. c #C2AC63",
"h. c #C1AC6A",
"j. c #C5B266",
"k. c #CBB464",
"l. c #C3B26C",
"z. c #CAB56B",
"x. c #CCB96C",
"c. c #C4B866",
"v. c #D4BB65",
"b. c #D3BC6C",
"n. c #D5BA66",
"m. c #C4B373",
"M. c #CDBB73",
"N. c #CCBC7B",
"B. c #C7B976",
"V. c #D0BD74",
"C. c #C3AF73",
"Z. c #D6C06E",
"A. c #DBC26E",
"S. c #DAC376",
"D. c #D5C27A",
"F. c #DCC57B",
"G. c #D5C171",
"H. c #E4C767",
"J. c #E3CA77",
"K. c #EAD17C",
"L. c #9B9983",
"P. c #A19D83",
"I. c #A8A588",
"U. c #B4AC84",
"Y. c #BAAC83",
"T. c #BCB484",
"R. c #BCB488",
"E. c #B5B193",
"W. c #AEAB93",
"Q. c #BBB9A6",
"!. c #C1BA89",
"~. c #C5B985",
"^. c #C2BC92",
"/. c #D1BD80",
"(. c #C3BEA1",
"). c #CEC38B",
"_. c #D4C484",
"`. c #DAC683",
"'. c #D6C982",
"]. c #DDCA83",
"[. c #D3C58A",
"{. c #DCCB8C",
"}. c #D9C78B",
"|. c #CAC499",
" X c #D6CB94",
".X c #DBCD93",
"XX c #DACE9A",
"oX c #D3CB9C",
"OX c #DED196",
"+X c #DED19C",
"@X c #E1CB84",
"#X c #E5D18E",
"$X c #E9D283",
"%X c #F2DB8E",
"&X c #E2D296",
"*X c #EDD995",
"=X c #E3D49C",
"-X c #E6DB9C",
";X c #EBDB9C",
":X c #EBD796",
">X c #F3DE98",
",X c #F8E39D",
"<X c #FBE28E",
"1X c #DED3A3",
"2X c #DED5AA",
"3X c #D9D3B2",
"4X c #CCC8B0",
"5X c #E2D5A2",
"6X c #E5D9A5",
"7X c #ECDCA4",
"8X c #E5DAA9",
"9X c #E9DEAC",
"0X c #ECDDAA",
"qX c #ECE1AA",
"wX c #F6E5A8",
"eX c #ECE4B4",
"rX c #EFE8BD",
"tX c #F4ECBD",
"yX c #F6EAB5",
"uX c #FEF3B9",
"iX c #F3EDC4",
"pX c #FBF5CA",
"aX c #F9F3C6",
"sX c #FDF9D3",
/* pixels */
"                                                                                                                                ",
"                                                                                                                                ",
"                                                                                                                                ",
"                                                                                                                                ",
"                                                                                                                                ",
"                                                                                                                                ",
"                                                                                                                                ",
"                                                                                                                                ",
"                                            8 8 - 4 ; ; + + ; + + ; + + + ; + + + + ; k 8 ! n                                   ",
"                                      F ` +.G G b P P ^ _ ( ( _ _ _ _ _ _ _ ( _ _ [ 0. . .g.r.R.Y                               ",
"                                  D q.7.) b G Z ~ ] ~ y.d.a.a.a.a.d.a.a.d.a.a.a.d.f.$XJ.;X.Xh.9.+.l o                           ",
"                                8.N.{ 1 j x z c c ( H ] u.y.*.u.y.y.*.y.y.y.*.*.O.u.S.b.&X*X;Xj.h.9 ; .                         ",
"                            v B.6.M x j 8 8 8 8 x ~ z ' O.o.O.O.o.o.O.O.O.O.O.O.o.*.M.G. X=X .N.%XA.z 7 .                       ",
"                          n c.J 5 x j 4 4 3 < 8 z ) J ) ` ` ` ` ` ' ` ` ` ` ` ` ` #.z.M.OXB.i.=XS.s./ 5 -..                     ",
"                        a $.G j 8 5 5 < , 8 V z l 9 5 5 j 8 j j 8 j 8 j 8 j 8 j 8 Z / @.l.j.'.[.#.H x x K :.                    ",
"                      u Q c C z x 4 , 4 z l < , , , < 8 z x k z l z x l l z l x l A ` @.j. X[.@.z 4 1 H { +.p                   ",
"                      a m g.~ z j 4 k V < , , < 1 5 4 j c c C c c c c C C c c c c ( *.u.{.1X+X9.< 5  .9.k.H R                   ",
"                    p u .._ g.) x G k - , < 4 5 j x c _ [ [ [ [ [ ' [ _ [ [ [ [ _ s.H.J.=X=XXX{.` 8.K l n.V.n w                 ",
"                    w 3.s.Z x ) ` b , , 4 5 5 J X.^ K m m K n D D D D D D D I D m n 0.%XwX=X@Xu.) 3 v N.7XwXT e                 ",
"                  g M z.k.k.J z J < 8 j 5 c #.{ a y * $ # # $ $ $ # $ $ $ # $ $ # > e I @X$X' z j L =X8X&X*Xh.e                 ",
"                  :.6.J.c.&.7.} 3 4 j x ] i.a w q                                     =.4.Z Z G V V  X+X{.wX{.e                 ",
"                U r.N.J.G.x.&.j 5 j x ^ h.e y                                         $ W.P ( Z C z ).1X1X,XV.e                 ",
"                W.T.J.#X'.N.+.4 5 x Z y.i t                                             $ m p.%.@.} &.j.c.n.S.i                 ",
"                (.~.;X&X{._./ / H c i.N r                                               1.5.*X;XOX{.B.M.`.%X$Xe                 ",
"              s 4X~.wX5X1XB.Z C [ f.8.y                                                 E.!.7X6X5XXX( ' #.f.M.t                 ",
"              B Q./.wX=X6Xl.o.o.] n.N w                                               B N C.@X&X5XB.x c ' f.8.r                 ",
"              ,.^.`.;XOX X&.O.s.H.N.s                                               P.^.W i.s.j.[. .x M ~ n.-.q                 ",
"              <.!./.*X.X[.&.*.s.H.3.r                   h w.g r r r r r r r r s y 1.3X4.c c ( %.X.< x ~ o.x.d w                 ",
"              ,.w.@X;X&X}.}.&X:XwX:.w                 I.3X!.| R E E E E E E R E Y Q F j z l l } v 7 5 C n.-.r                   ",
"              ,.U.XX0X7X+X+X6X7XyX-.0               h R.4.M  .A.Z.Z.Z.Z.Z.Z.A.b.Z.{ F a n v Q Y 7 L |  .8.d r                   ",
"              <.U.1XyXrX9X8XeXyXuX;.0               I.4.:.W R _.'.'.'.].'.'.'.'.'.3.R I n I N.3.Y n m.).p f                     ",
"              <.U.2XaXiXiXrXaXiXpX;.0             h 4X3XrXT.:.=X-X-X-X-X-X-X-X-X-Xe.>.:.U R.qX-XOX|.T.t B                       ",
"              <.U.2XpXpXiXiXpXpXsX2.q             g ;.U.|.oX2X~.).R.).R.R.!.!.).~.). X XqXaXsXsXsXrX=.=.X                       ",
"              <.U.2XaXtXyXeXtXtXaX;.0               <.:.5.qXoXR :.:.:.:.:.:.:.:.:.r.~.OXtXiXiX2XT.r.5.;.h                       ",
"              <.U.+XyXqX6X6XqXeXuX-.0               L.U.1XuX9.Q Q | Q | Q Q Q Q | 9.B.-XeXiX|.D 3.Q q.Y W.h                     ",
"              <.w..XqX5XOX X=X-XwX-.0               q 2.4.'.g. .+. . . . .}  .+...b.$X>X8XeX8X9.D $.6.B.8.E.w                   ",
"              ,.w.`.;X.X[.[.=X-X,X:.w                 r f d p i p p p p p p p p g U 8.:XyX;X@Xz.H  .G ` k.| 1.                  ",
"              g 5.{.;X#X[.[.8X8XyX0.g                       % * % % 0 % % % % % 0 w f R m.D.&.c z 5 - C k.7.;.w                 ",
"              d U h.b.g.$.).8X5X*X7.=.%                                               <.w.X.Z c C l k 9.:X>XE f                 ",
"              # = _ u.[ / 9..XS.J.g.4.g                                                 W.^ ( Z V C [.-X6X*X6.p                 ",
"                & P y._ c M B.9...d...I..                                               # m g.7.$. .[.1X@X>X/.i                 ",
"                w T [ z j 4 K ( v.`.b.5.<.                                              I.w.;X;X=X X X8X0XyX`.e                 ",
"                s :.x x j 5 C N.3.x g.X.U t                                             E.~.7X5X=XXXm.B.N.J.J.t                 ",
"                . P.c H z c H j ; x i.#.x - p g                                       N u m.*X=X1XXXz.z.b.J.F.u                 ",
"                  L.4.S ' / 9.9.8 *.` j c h.M e.Q.1.                                w.e.E i.x.D.}.[.@.0.k.K.`.w                 ",
"                  w E.^ &.D.OX&.) ~ 4 1 z.K.S.C.Y.|.4.n p & * * * * * * * * & & e 4.~.T G C H ` l.0.V S ' d.g.>                 ",
"                    5.6.M.#X` J @.Q < &.].n.&XwX;X/.h.0.^ G G K K G K G K G G K L P x j 5 j z x ) H x C _ n.R *                 ",
"                    $ w.X.b.%.&.[.2X9.M.x.V.=X=X6X;X$XJ.d.d.d.d.d.d.d.d.d.d.d.d.a.Z j 4 4 4 5 H F < l C / k.u %                 ",
"                      p E &.F.:XOXXX.X[.j.[.+X+XOX{.D.G.u.u.u.y.u.y.u.u.u.u.u.u.y.C j 5 , - x M , < 8 C #. .&                   ",
"                        N F #X,X#X&X{.XXN.N.).OX+X.XD.M.O.O.o.o.o.o.o.O.] o.o.o.o.z 4 4 5 b j , 4 5 8 Z i.2 =                   ",
"                          a n F.>X>X&X.XD.z.&.&.7.l.l.j.*.@.@.#.@.#.#.@.#.#.@.@.@.G G z l 4 - < j x S k.9 >                     ",
"                            u 6 N.,XwX].F.i.7./ A z 8 j l l l l z l l l l z z l l z l 4 - - 3 1 5 Z b.T =                       ",
"                              7 3 | *X<XH.v.u.' ' C k x k x k x x x j j j x j j x x x 5 3 4 5 j _ p.k = :                       ",
"                                : 2 6 0.J.K.H.y.O.~ c c C z c c z C c V c c c c z C C j j j c ]  .3 = :                         ",
"                                    : ; 2 T 0.p.A.#.( _ ( _ _ _ ( _ ( ( ( _ _ _ _ ( ( / ^ _ K k + @                             ",
"                                        o + + ; 8 8 6 k k k k k k k v k v k k k k v 9 9 6 ; + o                                 ",
"                                              X o X X o o o o o o o o o o o o o o o o X X X                                     ",
"                                                                                                                                ",
"                                                                                                                                ",
"                                                                                                                                ",
"                                                                                                                                ",
"                                                                                                                                ",
"                                                                                                                                ",
"                                                                                                                                "
};
